{"title":"Terminator.Genisys.2015.BRRip.480p.x264.AAC-VYTO [P2PDL]","uid":12496021,"size":504855780,"categoryP":"video","categoryS":"movies","magnet":"?xt=urn:btih:a3f46f286d75e845a18a5aa5b28beb4288d27dee&amp;dn=Terminator.Genisys.2015.BRRip.480p.x264.AAC-VYTO+%5BP2PDL%5D&amp;tr=udp%3A%2F%2Ftracker.leechers-paradise.org%3A6969&amp;tr=udp%3A%2F%2Fzer0day.ch%3A1337&amp;tr=udp%3A%2F%2Fopen.demonii.com%3A1337&amp;tr=udp%3A%2F%2Ftracker.coppersurfer.tk%3A6969&amp;tr=udp%3A%2F%2Fexodus.desync.com%3A6969","seeders":0,"leechers":1,"uploader":"VYTOP2PDL","files":7,"time":1443267071,"description":"____    ____ ____    ____ .___________.  ______   \r\n     /   /      /   / |           | /  __    \r\n    /   /      /   /  `---|  |----`|  |  |  | \r\n        /     _    _/       |  |     |  |  |  | \r\n       /        |  |         |  |     |  `--'  | \r\n    __/         |__|         |__|      ______/  \r\n                                                  \r\nPresenting Small Encodes with quality for years!\r\n                                                                                                   \r\n                                                                                                   \r\n\r\nTerminator.Genisys.2015.BRRip.480p.x264.AAC-VYTO\r\n\r\n\r\nGenre: Action, Adventure, Sci-Fi \nhttp://www.imdb.com/title/tt1340138/\r\n\r\n\r\nGeneral\r\nFormat                         : MPEG-4\r\nFile size                      : 477 MiB\r\nDuration                       : 2h 5mn\r\nOverall bit rate               : 530 Kbps\r\n\r\nVideo\r\nFormat                         : AVC\r\nBit rate                       : 495 Kbps\r\nWidth                          : 720 pixels\r\nHeight                         : 304 pixels\r\nDisplay aspect ratio           : 2.35:1\r\nFrame rate mode                : Constant\r\nFrame rate                     : 23.976 fps\r\nBit depth                      : 8 bits\r\nStream size                    : 445 MiB (93%)\r\nWriting library                : x264 core 148 r2597\r\n\r\nAudio\r\nFormat                         : AAC\r\nBit rate mode                  : Variable\r\nBit rate                       : 32.0 Kbps\r\nChannel(s)                     : 2 channels \r\nChannel positions              : Front: L R \r\nSampling rate                  : 48.0 KHz \r\nStream size                    : 28.8 MiB (6%)\r\nLanguage                       : English\r\n\r\nSubtitle                       : Yes (English)\r\nSource                     \t   : 720p.BluRay.x264-SPARKS\r\n\r\nScreenshots:\r\n \nhttp://ititli.com/dC \nhttp://ititli.com/dF \nhttp://ititli.com/dJ \nhttp://ititli.com/d5 \nhttp://ititli.com/dB \nhttp://ititli.com/dN \nhttp://ititli.com/dP \nhttp://ititli.com/df \nhttp://ititli.com/du \nhttp://ititli.com/dv \nhttp://ititli.com/dR \nhttp://ititli.com/dy \nhttp://ititli.com/d3 \nhttp://ititli.com/dE \nhttp://ititli.com/dQ\r\n\r\n----------------------------------------------------------------------------------------------------\r\n\r\n\r\nEncoder Notes: Looking For Early Access To Anything You Can Provide DVDScr, R5, DVDR, BluRay, Direct\r\nAudio, Music Releases and Seedboxes. If You Got anything to offer please contact us.\r\n\r\nSupport us by donating BC - 1FgwdzPsd1y25Gea8wP1qni35uGCtmkRCD\r\n\r\nFace book Fan Page","torrent":{"xt":"urn:btih:a3f46f286d75e845a18a5aa5b28beb4288d27dee","amp;dn":"Terminator.Genisys.2015.BRRip.480p.x264.AAC-VYTO+%5BP2PDL%5D","amp;tr":["udp%3A%2F%2Ftracker.leechers-paradise.org%3A6969","udp%3A%2F%2Fzer0day.ch%3A1337","udp%3A%2F%2Fopen.demonii.com%3A1337","udp%3A%2F%2Ftracker.coppersurfer.tk%3A6969","udp%3A%2F%2Fexodus.desync.com%3A6969"],"infoHash":"a3f46f286d75e845a18a5aa5b28beb4288d27dee","infoHashBuffer":{"type":"Buffer","data":[163,244,111,40,109,117,232,69,161,138,90,165,178,139,235,66,136,210,125,238]},"announce":[],"urlList":[]}}